<?xml version="1.0" encoding="iso-8859-1"?>
<!-- Generator: Adobe Illustrator 19.0.0, SVG Export Plug-In . SVG Version: 6.00 Build 0)  -->
<svg version="1.1" id="Capa_1" xmlns="http://www.w3.org/2000/svg" xmlns:xlink="http://www.w3.org/1999/xlink" x="0px" y="0px"
	 viewBox="0 0 512 512" style="enable-background:new 0 0 512 512;" xml:space="preserve">
<g>
	<g>
		<path d="M434.625,388.052C449.086,372.956,458,352.506,458,330c0-39.836-27.883-73.26-65.151-81.841
			c-6.053-46.688-35.532-86.123-76.223-106.107C331.086,126.956,340,106.506,340,84c0-46.318-37.682-84-84-84s-84,37.682-84,84
			c0,22.506,8.914,42.956,23.375,58.052c-40.691,19.984-70.17,59.419-76.223,106.107C81.883,256.74,54,290.164,54,330
			c0,22.506,8.914,42.956,23.375,58.052C31.592,410.536,0,457.645,0,512h40c0-54.037,43.962-98,98-98c54.038,0,98,43.963,98,98h40
			c0-54.037,43.962-98,98-98c54.038,0,98,43.963,98,98h40C512,457.645,480.408,410.536,434.625,388.052z M256,40
			c24.262,0,44,19.738,44,44s-19.738,44-44,44c-24.262,0-44-19.738-44-44S231.738,40,256,40z M138,374c-24.262,0-44-19.738-44-44
			c0-24.262,19.738-44,44-44s44,19.738,44,44C182,354.262,162.262,374,138,374z M313.375,388.052
			c-23.755,11.666-43.693,29.957-57.375,52.456c-13.682-22.499-33.62-40.79-57.375-52.456C213.086,372.956,222,352.506,222,330
			c0-38.883-26.561-71.669-62.488-81.196C167.664,202.937,207.828,168,256,168s88.336,34.937,96.488,80.804
			C316.561,258.331,290,291.117,290,330C290,352.506,298.914,372.956,313.375,388.052z M374,374c-24.262,0-44-19.738-44-44
			c0-24.262,19.738-44,44-44c24.262,0,44,19.738,44,44C418,354.262,398.262,374,374,374z"/>
	</g>
</g>
<g>
</g>
<g>
</g>
<g>
</g>
<g>
</g>
<g>
</g>
<g>
</g>
<g>
</g>
<g>
</g>
<g>
</g>
<g>
</g>
<g>
</g>
<g>
</g>
<g>
</g>
<g>
</g>
<g>
</g>
</svg>
